# xmcd
#
# Track frame offsets:
#	150
#	17125
#	40265
#	57742
#	79999
#	105104
#	126396
#	143519
#	157131
#
# Disc length: 2446 seconds
#
# Revision: 1
# Processed by: cddbd v1.5.1PL2 Copyright (c) Steve Scherf et al.
# Submitted via: audiograbber 1.83.01
#
DISCID=77098c09
DTITLE=John Crews Blues - The King Of Broken Hearts
DYEAR=2003
DGENRE=Blues
TTITLE0=Mail Box Blues
TTITLE1=King Of Broken Hearts
TTITLE2=Right Side Of The Tracks
TTITLE3=Steal'in Dreams
TTITLE4=Ballad Of Johnny Shaw
TTITLE5=Jen Ne Pa's
TTITLE6=Please Send Me Someone To Love
TTITLE7=Empty Pockets
TTITLE8=Ocean Of Emotion
EXTD=
EXTT0=
EXTT1=
EXTT2=
EXTT3=
EXTT4=
EXTT5=
EXTT6=
EXTT7=
EXTT8=
PLAYORDER=
